<?xml version="1.0" standalone="no"?>
<!DOCTYPE svg PUBLIC "-//W3C//DTD SVG 20010904//EN"
 "http://www.w3.org/TR/2001/REC-SVG-20010904/DTD/svg10.dtd">
<svg version="1.0" xmlns="http://www.w3.org/2000/svg"
 width="360.000000pt" height="360.000000pt" viewBox="0 0 360.000000 360.000000"
 preserveAspectRatio="xMidYMid meet">

<g transform="translate(0.000000,360.000000) scale(0.100000,-0.100000)"
fill="#000000" stroke="none">
<path d="M641 2912 c-266 -143 250 -988 1024 -1680 426 -381 830 -624 1061
-640 95 -6 139 14 167 77 38 87 11 212 -93 426 -53 109 -232 395 -246 395 -4
0 1 -10 10 -22 8 -13 38 -59 65 -103 164 -268 201 -443 110 -520 -26 -21 -40
-25 -98 -25 -83 0 -163 25 -294 92 -520 267 -1235 991 -1473 1493 -100 211
-98 355 6 392 87 31 268 -26 465 -147 104 -64 75 -36 -42 41 -136 88 -345 192
-443 219 -94 25 -174 26 -219 2z"/>
<path d="M1520 2688 c0 -3 25 -36 56 -74 62 -77 109 -162 119 -216 14 -72 -28
-161 -134 -288 -55 -65 -53 -65 29 1 130 105 211 139 288 119 52 -13 135 -63
212 -129 83 -71 89 -71 29 0 -80 94 -115 148 -135 208 -28 88 2 175 106 301
60 74 56 75 -26 10 -194 -155 -278 -150 -491 28 -29 24 -53 42 -53 40z"/>
</g>
</svg>
