<?xml version="1.0" standalone="no"?>
<!DOCTYPE svg PUBLIC "-//W3C//DTD SVG 20010904//EN"
 "http://www.w3.org/TR/2001/REC-SVG-20010904/DTD/svg10.dtd">
<svg version="1.0" xmlns="http://www.w3.org/2000/svg"
 width="200.000000pt" height="200.000000pt" viewBox="0 0 200.000000 200.000000"
 preserveAspectRatio="xMidYMid meet">

<g transform="translate(0.000000,200.000000) scale(0.100000,-0.100000)"
fill="#000000" stroke="none">
<path d="M477 1524 c-4 -4 -7 -247 -7 -541 l0 -533 75 0 75 0 1 363 c2 414 -1
416 64 -58 45 -335 37 -305 85 -305 36 0 39 2 45 33 3 17 25 178 50 356 24
178 46 326 50 329 3 3 5 -157 5 -356 l0 -362 70 0 70 0 0 540 0 540 -94 0
c-52 0 -97 -3 -99 -8 -3 -4 -24 -129 -46 -277 -23 -149 -44 -281 -48 -295 -3
-15 -24 94 -52 275 l-46 300 -95 3 c-53 1 -99 0 -103 -4z"/>
<path d="M1150 985 l0 -535 175 0 175 0 0 70 0 69 -97 3 -98 3 -3 463 -2 462
-75 0 -75 0 0 -535z"/>
</g>
</svg>
