<svg width="26" height="19" viewBox="0 0 26 19" fill="none" xmlns="http://www.w3.org/2000/svg">
<path d="M3.95812 0H21.11C22.1598 0 23.1665 0.396165 23.9088 1.10134C24.6511 1.80652 25.0681 2.76295 25.0681 3.76022V15.0409C25.0681 16.0381 24.6511 16.9946 23.9088 17.6997C23.1665 18.4049 22.1598 18.8011 21.11 18.8011H3.95812C2.90836 18.8011 1.9016 18.4049 1.15931 17.6997C0.417016 16.9946 0 16.0381 0 15.0409V3.76022C0 2.76295 0.417016 1.80652 1.15931 1.10134C1.9016 0.396165 2.90836 0 3.95812 0ZM3.95812 1.25341C3.29844 1.25341 2.71791 1.46648 2.26932 1.84251L12.5341 8.14714L22.7988 1.84251C22.3502 1.46648 21.7697 1.25341 21.11 1.25341H3.95812ZM12.5341 9.66376L1.49089 2.85777C1.38534 3.13352 1.31937 3.44687 1.31937 3.76022V15.0409C1.31937 15.7057 1.59738 16.3433 2.09225 16.8135C2.58711 17.2836 3.25828 17.5477 3.95812 17.5477H21.11C21.8098 17.5477 22.481 17.2836 22.9759 16.8135C23.4707 16.3433 23.7487 15.7057 23.7487 15.0409V3.76022C23.7487 3.44687 23.6828 3.13352 23.5772 2.85777L12.5341 9.66376Z" fill="#A4A4A4"/>
</svg>
